# xmcd
#
# Track frame offsets: 
#        150
#        14379
#        28783
#        46164
#        61865
#        75888
#        89406
#        105336
#        118874
#        130932
#        149648
#
# Disc length: 2363 seconds
#
# Revision: 0
# Processed by: cddbd v1.5.2PL0 Copyright (c) Steve Scherf et al.
# Submitted via: ExactAudioCopy v1.3
#
DISCID=8909390b
DTITLE=The Nighthawks - The Nighthawks
DYEAR=1980
DGENRE=Chicago Blues, Modern Electric Blues
TTITLE0=Mainline
TTITLE1=Upside Your Head
TTITLE2=Every Night And Every Day
TTITLE3=Back To The City
TTITLE4=One Nite Stand
TTITLE5=Pretty Girls And Cadillacs
TTITLE6=Brand New Man
TTITLE7=Little Sister
TTITLE8=Don't Go No Further
TTITLE9=Teen-Age Letter
TTITLE10=I Wouldn't Treat A Dog (The Way You Treated Me)
EXTD=
EXTT0=
EXTT1=
EXTT2=
EXTT3=
EXTT4=
EXTT5=
EXTT6=
EXTT7=
EXTT8=
EXTT9=
EXTT10=
PLAYORDER=
